<svg id="Group_256" data-name="Group 256" xmlns="http://www.w3.org/2000/svg" width="20" height="20" viewBox="0 0 20 20">
  <g id="Group_192" data-name="Group 192">
    <path id="Path_226" data-name="Path 226" d="M19.958,32.191l-1.88-4.123V26.433A.414.414,0,0,0,17.687,26H2.312a.415.415,0,0,0-.391.435v1.635L.042,32.191a.476.476,0,0,0-.042.2v1.07a2.514,2.514,0,0,0,1.922,2.536v9.135h-.4a.437.437,0,0,0,0,.87H18.478a.437.437,0,0,0,0-.87h-.4V35.993A2.514,2.514,0,0,0,20,33.457v-1.07A.475.475,0,0,0,19.958,32.191ZM2.7,26.868H17.3v.87H2.7Zm9.607,5.476-.341-3.737h2.353l1.052,3.845v1a1.627,1.627,0,0,1-1.531,1.7,1.627,1.627,0,0,1-1.531-1.7v-1.07Q12.312,32.365,12.31,32.343Zm-.779.066v1.048h0A1.627,1.627,0,0,1,10,35.161a1.627,1.627,0,0,1-1.531-1.7V32.409l.347-3.8h2.369Zm-3.5-3.8L7.69,32.343c0,.015,0,.029,0,.044v1.07a1.627,1.627,0,0,1-1.531,1.7,1.627,1.627,0,0,1-1.531-1.7v-1l1.052-3.845ZM.781,33.457v-.966l1.771-3.885H4.86l-1,3.654a.481.481,0,0,0-.017.127v1.07a1.627,1.627,0,0,1-1.531,1.7A1.627,1.627,0,0,1,.781,33.457ZM15.734,45.128H13.391V42.085h.391a.437.437,0,0,0,0-.87h-.391V38.172h2.344Zm1.562,0h-.781V37.737a.414.414,0,0,0-.391-.435H3.875a.414.414,0,0,0-.391.435v6.087a.414.414,0,0,0,.391.435h8.734v.87H2.7V35.993a2.314,2.314,0,0,0,1.531-1.107,2.261,2.261,0,0,0,1.922,1.144,2.261,2.261,0,0,0,1.922-1.144,2.186,2.186,0,0,0,3.844,0,2.186,2.186,0,0,0,3.844,0A2.314,2.314,0,0,0,17.3,35.993v9.135ZM8.075,38.172H9.436L8.694,39a.47.47,0,0,0,0,.615.363.363,0,0,0,.552,0l1.3-1.442h2.068v5.217H4.266v-.977Zm-3.81,3.011V38.172h2.7Zm14.953-7.726a1.627,1.627,0,0,1-1.531,1.7,1.627,1.627,0,0,1-1.531-1.7v-1.07a.48.48,0,0,0-.017-.127l-1-3.654h2.308l1.771,3.885Z" transform="translate(0 -25.998)" fill="#fff"/>
  </g>
</svg>
